<?xml version="1.0" encoding="utf-8"?>
<!-- Generator: Adobe Illustrator 15.1.0, SVG Export Plug-In . SVG Version: 6.00 Build 0)  -->
<!DOCTYPE svg PUBLIC "-//W3C//DTD SVG 1.1//EN" "http://www.w3.org/Graphics/SVG/1.1/DTD/svg11.dtd">
<svg version="1.1" id="Layer_1" xmlns="http://www.w3.org/2000/svg" xmlns:xlink="http://www.w3.org/1999/xlink" x="0px" y="0px"
	 width="51px" height="51px" viewBox="0.5 0.5 51 51" enable-background="new 0.5 0.5 51 51" xml:space="preserve">
<path fill="#00A14B" stroke="#00A14B" stroke-miterlimit="10" d="M32.552,32.352c-0.026-0.203-0.067-0.367-0.125-0.492
	s-0.125-0.217-0.202-0.273c-0.078-0.057-0.164-0.086-0.259-0.086h-3.297V14.796c0-0.093-0.021-0.172-0.062-0.234
	c-0.043-0.062-0.125-0.111-0.25-0.147c-0.125-0.037-0.312-0.063-0.557-0.079c-0.244-0.015-0.564-0.023-0.961-0.023
	c-0.322,0-0.586,0.002-0.789,0.009c-0.203,0.005-0.367,0.015-0.492,0.03c-0.125,0.017-0.227,0.037-0.305,0.063
	c-0.078,0.024-0.143,0.06-0.195,0.101l-4.344,2.813c-0.125,0.083-0.224,0.161-0.297,0.233c-0.073,0.073-0.13,0.166-0.172,0.281
	c-0.042,0.115-0.068,0.253-0.078,0.414c-0.011,0.162-0.015,0.367-0.015,0.617c0,0.396,0.015,0.704,0.046,0.922
	c0.032,0.219,0.091,0.373,0.18,0.461c0.089,0.089,0.208,0.12,0.359,0.094c0.151-0.025,0.347-0.096,0.586-0.211l3.25-1.797v13.156
	H20.81c-0.094,0-0.177,0.028-0.25,0.086c-0.073,0.058-0.138,0.149-0.196,0.274c-0.057,0.125-0.099,0.289-0.125,0.492
	c-0.026,0.203-0.039,0.455-0.039,0.758c0,0.291,0.016,0.539,0.047,0.742c0.032,0.203,0.076,0.364,0.133,0.482
	c0.057,0.12,0.122,0.206,0.195,0.259c0.073,0.052,0.151,0.077,0.235,0.077h11.156c0.095,0,0.177-0.025,0.25-0.077
	c0.073-0.053,0.138-0.139,0.194-0.259c0.059-0.118,0.104-0.279,0.134-0.482s0.047-0.451,0.047-0.742
	C32.591,32.807,32.578,32.555,32.552,32.352z"/>
<circle fill="none" stroke="#00A14B" stroke-width="4" stroke-miterlimit="10" cx="26" cy="26" r="23.5"/>
</svg>
