<?xml version="1.0" encoding="utf-8"?>
<!-- Generator: Adobe Illustrator 15.1.0, SVG Export Plug-In . SVG Version: 6.00 Build 0)  -->
<!DOCTYPE svg PUBLIC "-//W3C//DTD SVG 1.1//EN" "http://www.w3.org/Graphics/SVG/1.1/DTD/svg11.dtd">
<svg version="1.1" id="Layer_1" xmlns="http://www.w3.org/2000/svg" xmlns:xlink="http://www.w3.org/1999/xlink" x="0px" y="0px"
	 width="72px" height="72px" viewBox="0 0 72 72" enable-background="new 0 0 72 72" xml:space="preserve">
<path fill="#D7DF23" stroke="#D7DF23" stroke-miterlimit="10" d="M42.273,42.662c-0.031-0.213-0.078-0.385-0.141-0.516
	c-0.062-0.13-0.139-0.226-0.227-0.289c-0.089-0.062-0.186-0.093-0.289-0.093h-7.969l2.359-2.422c1.188-1.179,2.141-2.211,2.86-3.102
	c0.719-0.89,1.276-1.703,1.672-2.437c0.396-0.735,0.656-1.42,0.781-2.055c0.125-0.635,0.188-1.281,0.188-1.938
	c0-0.75-0.129-1.45-0.383-2.101c-0.256-0.651-0.644-1.214-1.164-1.688c-0.521-0.474-1.175-0.843-1.961-1.109
	c-0.787-0.266-1.706-0.398-2.758-0.398c-0.667,0-1.308,0.062-1.922,0.187c-0.615,0.125-1.177,0.279-1.688,0.461
	c-0.51,0.182-0.94,0.37-1.289,0.563c-0.349,0.192-0.589,0.351-0.718,0.476c-0.131,0.125-0.222,0.232-0.274,0.32
	c-0.052,0.089-0.094,0.193-0.125,0.313c-0.031,0.12-0.055,0.26-0.07,0.422c-0.016,0.161-0.024,0.362-0.024,0.601
	c0,0.354,0.013,0.654,0.039,0.899c0.026,0.244,0.06,0.44,0.102,0.586s0.096,0.25,0.164,0.312c0.067,0.063,0.148,0.094,0.242,0.094
	c0.136,0,0.323-0.081,0.563-0.242c0.239-0.162,0.539-0.339,0.898-0.532c0.36-0.192,0.776-0.367,1.25-0.523
	c0.474-0.156,1.018-0.234,1.633-0.234c0.438,0,0.817,0.065,1.141,0.195c0.322,0.13,0.59,0.31,0.804,0.539
	c0.214,0.229,0.375,0.498,0.485,0.805c0.109,0.307,0.164,0.633,0.164,0.976c0,0.375-0.045,0.771-0.133,1.188
	c-0.089,0.416-0.253,0.872-0.492,1.367c-0.24,0.495-0.573,1.042-1,1.641c-0.427,0.599-0.99,1.263-1.688,1.992l-3.5,3.75
	c-0.208,0.219-0.378,0.419-0.508,0.601c-0.13,0.184-0.237,0.37-0.32,0.563c-0.083,0.192-0.141,0.411-0.172,0.655
	c-0.031,0.246-0.047,0.539-0.047,0.883c0,0.365,0.024,0.662,0.071,0.892c0.047,0.229,0.122,0.403,0.226,0.522
	c0.104,0.121,0.24,0.201,0.406,0.242c0.167,0.043,0.365,0.063,0.594,0.063H41.68c0.104,0,0.197-0.029,0.281-0.086
	c0.084-0.058,0.15-0.154,0.203-0.289c0.051-0.136,0.09-0.31,0.117-0.524c0.026-0.213,0.039-0.471,0.039-0.772
	C42.32,43.129,42.305,42.875,42.273,42.662z"/>
<ellipse fill="none" stroke="#D7DF23" stroke-width="4" stroke-miterlimit="10" cx="35.542" cy="36.421" rx="24" ry="23.5"/>
</svg>
