<?xml version="1.0" encoding="utf-8"?>
<!-- Generator: Adobe Illustrator 15.1.0, SVG Export Plug-In . SVG Version: 6.00 Build 0)  -->
<!DOCTYPE svg PUBLIC "-//W3C//DTD SVG 1.1//EN" "http://www.w3.org/Graphics/SVG/1.1/DTD/svg11.dtd">
<svg version="1.1" id="Layer_1" xmlns="http://www.w3.org/2000/svg" xmlns:xlink="http://www.w3.org/1999/xlink" x="0px" y="0px"
	 width="72px" height="72px" viewBox="0 0 72 72" enable-background="new 0 0 72 72" xml:space="preserve">
<path fill="#F7941E" stroke="#F7941E" stroke-miterlimit="10" d="M43.162,36.846c-0.207-0.526-0.508-0.998-0.897-1.414
	c-0.392-0.417-0.868-0.763-1.431-1.039c-0.562-0.276-1.197-0.456-1.905-0.539v-0.047c0.593-0.146,1.116-0.365,1.569-0.656
	c0.453-0.292,0.832-0.646,1.134-1.063c0.302-0.416,0.53-0.89,0.687-1.422c0.157-0.531,0.235-1.104,0.235-1.718
	c0-0.792-0.134-1.503-0.399-2.133c-0.265-0.631-0.656-1.162-1.172-1.594c-0.515-0.432-1.15-0.763-1.906-0.992
	c-0.754-0.229-1.621-0.344-2.601-0.344c-0.75,0-1.446,0.065-2.086,0.195c-0.641,0.131-1.206,0.289-1.696,0.477
	c-0.489,0.187-0.896,0.38-1.219,0.578c-0.323,0.198-0.536,0.346-0.64,0.445c-0.105,0.099-0.18,0.19-0.227,0.274
	c-0.047,0.083-0.086,0.182-0.117,0.297c-0.031,0.114-0.052,0.257-0.062,0.429c-0.011,0.172-0.016,0.389-0.016,0.649
	c0,0.312,0.01,0.568,0.031,0.765c0.021,0.198,0.052,0.35,0.094,0.454s0.094,0.174,0.156,0.21c0.063,0.037,0.136,0.055,0.219,0.055
	c0.125,0,0.32-0.083,0.586-0.25c0.266-0.166,0.588-0.346,0.969-0.539c0.38-0.193,0.809-0.37,1.289-0.531
	c0.479-0.162,0.989-0.242,1.531-0.242c0.479,0,0.896,0.065,1.25,0.195s0.643,0.307,0.867,0.531c0.225,0.224,0.393,0.49,0.508,0.797
	c0.114,0.307,0.172,0.633,0.172,0.977c0,0.447-0.084,0.857-0.25,1.226c-0.166,0.37-0.408,0.686-0.727,0.946
	c-0.318,0.26-0.711,0.461-1.179,0.601c-0.469,0.141-1.006,0.211-1.61,0.211h-1.765c-0.125,0-0.232,0.021-0.321,0.063
	c-0.089,0.041-0.161,0.114-0.218,0.218c-0.058,0.104-0.1,0.253-0.125,0.446c-0.027,0.192-0.04,0.44-0.04,0.742
	c0,0.323,0.013,0.586,0.04,0.789c0.025,0.203,0.07,0.362,0.132,0.476c0.063,0.115,0.141,0.19,0.235,0.227
	c0.093,0.037,0.208,0.055,0.343,0.055h1.75c0.74,0,1.383,0.072,1.93,0.218c0.547,0.146,1,0.352,1.36,0.618
	c0.358,0.265,0.629,0.586,0.812,0.961s0.274,0.796,0.274,1.265c0,0.428-0.076,0.815-0.228,1.164c-0.15,0.35-0.379,0.646-0.688,0.892
	c-0.307,0.245-0.679,0.435-1.117,0.569c-0.437,0.135-0.943,0.203-1.515,0.203c-0.678,0-1.282-0.07-1.813-0.211
	c-0.531-0.14-0.995-0.291-1.391-0.453c-0.395-0.16-0.721-0.312-0.976-0.453c-0.255-0.14-0.435-0.211-0.539-0.211
	c-0.167,0-0.292,0.096-0.375,0.289c-0.084,0.193-0.125,0.539-0.125,1.039c0,0.303,0.008,0.561,0.023,0.774
	c0.016,0.213,0.042,0.39,0.078,0.53c0.037,0.142,0.079,0.264,0.125,0.367c0.047,0.104,0.118,0.198,0.211,0.281
	c0.094,0.084,0.292,0.204,0.594,0.36c0.302,0.155,0.685,0.307,1.149,0.452c0.463,0.146,0.997,0.269,1.601,0.367
	c0.604,0.1,1.25,0.149,1.938,0.149c1.135,0,2.182-0.14,3.14-0.415s1.781-0.679,2.469-1.21c0.688-0.532,1.225-1.188,1.609-1.969
	c0.387-0.781,0.578-1.677,0.578-2.688C43.475,37.938,43.371,37.372,43.162,36.846z"/>
<ellipse fill="none" stroke="#F7941E" stroke-width="4" stroke-miterlimit="10" cx="35.791" cy="35.792" rx="24" ry="23.5"/>
</svg>
