<?xml version="1.0" encoding="utf-8"?>
<!-- Generator: Adobe Illustrator 15.1.0, SVG Export Plug-In . SVG Version: 6.00 Build 0)  -->
<!DOCTYPE svg PUBLIC "-//W3C//DTD SVG 1.1//EN" "http://www.w3.org/Graphics/SVG/1.1/DTD/svg11.dtd">
<svg version="1.1" id="Layer_1" xmlns="http://www.w3.org/2000/svg" xmlns:xlink="http://www.w3.org/1999/xlink" x="0px" y="0px"
	 width="51px" height="51px" viewBox="0.5 0.5 51 51" enable-background="new 0.5 0.5 51 51" xml:space="preserve">
<path fill="#F6921E" stroke="#F6921E" stroke-miterlimit="10" d="M33.371,27.055c-0.207-0.527-0.508-0.999-0.896-1.415
	c-0.393-0.417-0.869-0.763-1.432-1.039s-1.197-0.456-1.904-0.539v-0.047c0.592-0.146,1.115-0.365,1.568-0.656
	c0.453-0.292,0.832-0.646,1.134-1.062s0.53-0.891,0.687-1.423c0.158-0.53,0.236-1.104,0.236-1.718c0-0.792-0.135-1.503-0.4-2.133
	c-0.264-0.631-0.655-1.162-1.172-1.594c-0.515-0.433-1.149-0.764-1.905-0.992c-0.754-0.229-1.621-0.344-2.601-0.344
	c-0.75,0-1.447,0.064-2.086,0.194c-0.641,0.132-1.206,0.289-1.696,0.478c-0.488,0.187-0.896,0.38-1.219,0.578
	c-0.323,0.197-0.536,0.346-0.64,0.444c-0.105,0.1-0.181,0.19-0.228,0.274c-0.047,0.083-0.086,0.182-0.116,0.297
	c-0.031,0.114-0.053,0.257-0.062,0.429c-0.011,0.172-0.016,0.39-0.016,0.649c0,0.312,0.01,0.568,0.03,0.765
	c0.021,0.198,0.053,0.351,0.095,0.454c0.042,0.104,0.094,0.174,0.155,0.21c0.063,0.037,0.137,0.056,0.22,0.056
	c0.125,0,0.319-0.083,0.586-0.25c0.266-0.166,0.588-0.347,0.969-0.539c0.38-0.193,0.809-0.37,1.289-0.531
	c0.479-0.162,0.989-0.242,1.531-0.242c0.479,0,0.896,0.065,1.249,0.195c0.354,0.13,0.645,0.307,0.867,0.53
	c0.225,0.225,0.393,0.49,0.508,0.798c0.113,0.307,0.172,0.633,0.172,0.977c0,0.447-0.084,0.857-0.25,1.226
	c-0.166,0.37-0.408,0.686-0.727,0.946c-0.318,0.26-0.711,0.461-1.179,0.602c-0.469,0.141-1.006,0.211-1.61,0.211h-1.765
	c-0.125,0-0.231,0.021-0.321,0.062c-0.089,0.041-0.16,0.114-0.218,0.218s-0.1,0.254-0.125,0.446c-0.027,0.192-0.04,0.44-0.04,0.742
	c0,0.323,0.013,0.586,0.04,0.789c0.025,0.203,0.07,0.362,0.132,0.476c0.063,0.115,0.142,0.19,0.235,0.228
	c0.093,0.037,0.208,0.055,0.343,0.055h1.75c0.74,0,1.383,0.072,1.93,0.218c0.547,0.146,1,0.353,1.36,0.617
	c0.358,0.266,0.629,0.587,0.812,0.962c0.183,0.375,0.273,0.796,0.273,1.265c0,0.428-0.076,0.814-0.228,1.164
	c-0.149,0.35-0.379,0.646-0.688,0.893c-0.307,0.244-0.679,0.435-1.117,0.568c-0.437,0.135-0.941,0.203-1.514,0.203
	c-0.678,0-1.282-0.07-1.812-0.211c-0.531-0.141-0.995-0.291-1.392-0.453c-0.395-0.16-0.721-0.312-0.976-0.453
	c-0.255-0.14-0.436-0.211-0.539-0.211c-0.167,0-0.292,0.096-0.375,0.289c-0.084,0.193-0.125,0.539-0.125,1.039
	c0,0.303,0.008,0.561,0.022,0.773c0.017,0.213,0.042,0.391,0.078,0.531c0.037,0.141,0.079,0.264,0.125,0.366
	c0.047,0.104,0.118,0.198,0.211,0.281c0.095,0.084,0.292,0.204,0.595,0.36c0.302,0.154,0.685,0.307,1.148,0.451
	c0.463,0.146,0.997,0.27,1.602,0.367c0.604,0.1,1.25,0.148,1.938,0.148c1.135,0,2.182-0.139,3.139-0.414
	c0.959-0.275,1.781-0.68,2.47-1.211s1.226-1.188,1.608-1.969c0.388-0.781,0.578-1.677,0.578-2.688
	C33.684,28.145,33.58,27.579,33.371,27.055z"/>
<circle fill="none" stroke="#F6921E" stroke-width="4" stroke-miterlimit="10" cx="26" cy="26" r="23.5"/>
</svg>
