<?xml version="1.0" encoding="utf-8"?>
<!-- Generator: Adobe Illustrator 15.1.0, SVG Export Plug-In . SVG Version: 6.00 Build 0)  -->
<!DOCTYPE svg PUBLIC "-//W3C//DTD SVG 1.1//EN" "http://www.w3.org/Graphics/SVG/1.1/DTD/svg11.dtd">
<svg version="1.1" id="Layer_1" xmlns="http://www.w3.org/2000/svg" xmlns:xlink="http://www.w3.org/1999/xlink" x="0px" y="0px"
	 width="52px" height="52px" viewBox="0 0 52 52" enable-background="new 0 0 52 52" xml:space="preserve">
<path fill="#EC1C24" stroke="#EC1C24" stroke-miterlimit="10" d="M26.833,27.201h-5.36l5.329-9.297h0.031V27.201z M33.012,27.584
	c-0.12-0.254-0.263-0.383-0.43-0.383h-1.797V15.029c0-0.113-0.053-0.213-0.156-0.297c-0.104-0.083-0.269-0.152-0.492-0.211
	c-0.225-0.057-0.523-0.099-0.898-0.125c-0.375-0.024-0.828-0.039-1.359-0.039c-0.49,0-0.906,0.012-1.25,0.032
	c-0.344,0.021-0.628,0.054-0.852,0.101c-0.224,0.048-0.398,0.104-0.523,0.173c-0.125,0.067-0.214,0.148-0.266,0.241l-6.281,11.078
	c-0.104,0.198-0.19,0.387-0.259,0.562c-0.066,0.178-0.12,0.365-0.155,0.562c-0.036,0.198-0.062,0.42-0.078,0.664
	c-0.017,0.245-0.023,0.534-0.023,0.868c0,0.405,0.019,0.731,0.055,0.976c0.037,0.245,0.094,0.432,0.172,0.563
	c0.078,0.13,0.175,0.213,0.289,0.25c0.114,0.036,0.244,0.054,0.391,0.054h7.735v3.657c0,0.104,0.028,0.194,0.085,0.272
	s0.16,0.144,0.312,0.195c0.151,0.053,0.354,0.092,0.609,0.118s0.57,0.039,0.945,0.039c0.396,0,0.719-0.013,0.969-0.039
	s0.453-0.065,0.609-0.118c0.156-0.052,0.266-0.117,0.328-0.195s0.094-0.168,0.094-0.272v-3.657h1.797
	c0.188,0,0.336-0.138,0.445-0.414c0.109-0.275,0.164-0.679,0.164-1.211C33.191,28.265,33.132,27.84,33.012,27.584z"/>
<circle fill="none" stroke="#EC1C24" stroke-width="4" stroke-miterlimit="10" cx="26" cy="26" r="23.5"/>
</svg>
