<?xml version="1.0" encoding="utf-8"?>
<!-- Generator: Adobe Illustrator 15.1.0, SVG Export Plug-In . SVG Version: 6.00 Build 0)  -->
<!DOCTYPE svg PUBLIC "-//W3C//DTD SVG 1.1//EN" "http://www.w3.org/Graphics/SVG/1.1/DTD/svg11.dtd">
<svg version="1.1" id="Layer_1" xmlns="http://www.w3.org/2000/svg" xmlns:xlink="http://www.w3.org/1999/xlink" x="0px" y="0px"
	 width="72px" height="72px" viewBox="0 0 72 72" enable-background="new 0 0 72 72" xml:space="preserve">
<path fill="#ED1C24" stroke="#ED1C24" stroke-miterlimit="10" d="M37.203,37.787h-5.359l5.328-9.297h0.031V37.787z M43.383,38.17
	c-0.12-0.254-0.263-0.383-0.43-0.383h-1.797V25.615c0-0.114-0.053-0.213-0.156-0.297c-0.104-0.083-0.269-0.153-0.492-0.211
	c-0.225-0.057-0.523-0.099-0.898-0.125c-0.375-0.025-0.828-0.039-1.359-0.039c-0.49,0-0.906,0.011-1.25,0.032
	s-0.628,0.054-0.852,0.101c-0.224,0.047-0.398,0.104-0.523,0.172s-0.214,0.149-0.266,0.242l-6.281,11.078
	c-0.104,0.198-0.19,0.386-0.259,0.562c-0.066,0.178-0.12,0.365-0.155,0.562c-0.036,0.198-0.062,0.42-0.078,0.664
	c-0.017,0.245-0.023,0.534-0.023,0.868c0,0.405,0.019,0.731,0.055,0.976c0.037,0.245,0.094,0.432,0.172,0.563
	c0.078,0.13,0.175,0.213,0.289,0.25c0.114,0.036,0.244,0.054,0.391,0.054h7.734v3.657c0,0.104,0.028,0.194,0.086,0.272
	c0.057,0.078,0.16,0.144,0.312,0.195c0.151,0.053,0.354,0.092,0.609,0.118s0.57,0.039,0.945,0.039c0.396,0,0.719-0.013,0.969-0.039
	s0.453-0.065,0.609-0.118c0.156-0.052,0.266-0.117,0.328-0.195s0.094-0.168,0.094-0.272v-3.657h1.797
	c0.188,0,0.336-0.138,0.445-0.414c0.109-0.275,0.164-0.679,0.164-1.211C43.562,38.851,43.503,38.426,43.383,38.17z"/>
<ellipse fill="none" stroke="#ED1C24" stroke-width="4" stroke-miterlimit="10" cx="36.159" cy="36.585" rx="24" ry="23.5"/>
</svg>
